<?xml version="1.0" standalone="no"?>
<!DOCTYPE svg PUBLIC "-//W3C//DTD SVG 20010904//EN"
 "http://www.w3.org/TR/2001/REC-SVG-20010904/DTD/svg10.dtd">
<svg version="1.0" xmlns="http://www.w3.org/2000/svg"
 width="260.000000pt" height="260.000000pt" viewBox="0 0 260.000000 260.000000"
 preserveAspectRatio="xMidYMid meet">
<metadata>
Created by potrace 1.14, written by Peter Selinger 2001-2017
</metadata>
<g transform="translate(0.000000,260.000000) scale(0.100000,-0.100000)"
fill="#000000" stroke="none">
<path d="M1270 2281 c0 -10 -48 -25 -69 -22 -7 1 -10 -2 -7 -7 7 -11 -21 -25
-34 -17 -4 3 -11 -2 -14 -11 -3 -8 -10 -12 -16 -9 -5 3 -10 1 -10 -5 0 -6 -4
-8 -10 -5 -5 3 -16 3 -22 -2 -7 -4 -16 -8 -20 -9 -5 -1 -10 -3 -13 -4 -3 -1
-8 -3 -12 -5 -5 -1 -15 -4 -23 -7 -69 -23 -79 -25 -89 -15 -7 7 -12 5 -17 -6
-3 -9 -10 -14 -15 -11 -6 3 -17 0 -26 -8 -14 -11 -16 -11 -8 1 6 11 4 13 -11
7 -10 -5 -30 -10 -44 -12 -14 -2 -34 -6 -45 -7 -11 -2 -20 -11 -20 -20 0 -8
-3 -18 -7 -22 -3 -4 -2 -21 3 -38 11 -39 11 -40 -1 -32 -6 4 -7 -2 -2 -17 4
-13 7 -51 7 -85 0 -36 4 -63 10 -63 6 0 3 -5 -5 -10 -13 -9 -13 -10 0 -10 9 0
11 -3 5 -8 -12 -8 -15 -53 -4 -46 4 2 10 0 14 -6 3 -5 1 -10 -5 -10 -6 0 -8
-5 -4 -12 4 -6 9 -23 10 -37 2 -14 5 -33 7 -41 4 -15 20 -91 22 -100 0 -3 6
-14 12 -25 6 -11 9 -28 8 -38 -2 -9 1 -15 6 -11 8 4 14 -17 10 -38 0 -5 4 -8
9 -8 6 0 10 -9 10 -20 0 -11 5 -20 11 -20 5 0 8 -4 4 -9 -3 -6 3 -14 12 -20
10 -6 14 -11 9 -11 -5 0 -3 -7 4 -15 7 -8 9 -15 5 -15 -5 0 2 -8 13 -19 12
-10 22 -25 22 -32 0 -8 9 -21 19 -29 11 -7 18 -17 15 -22 -3 -4 -1 -8 5 -8 5
0 13 -9 16 -20 4 -11 11 -18 16 -15 5 4 9 1 9 -4 0 -12 80 -96 93 -99 15 -3
36 -30 29 -37 -4 -5 -2 -5 5 -2 10 6 33 -9 83 -55 10 -9 21 -14 24 -11 2 3 19
-5 37 -18 18 -13 29 -18 25 -11 -5 8 0 12 13 12 12 0 21 4 21 9 0 9 38 24 54
22 5 -1 6 5 2 14 -3 10 -1 15 7 13 17 -4 128 92 121 104 -3 4 -2 7 3 6 4 -2
19 5 33 15 13 9 21 17 17 17 -4 0 6 14 23 31 16 18 30 36 30 41 0 5 4 6 10 3
6 -4 7 1 3 11 -4 12 -3 15 5 10 7 -4 12 -2 12 5 0 7 11 27 25 44 13 18 21 35
18 39 -4 3 -1 6 6 6 7 0 10 4 6 9 -3 6 2 14 11 19 9 5 15 12 15 15 -1 4 6 23
14 43 8 20 15 43 15 51 0 8 5 11 10 8 6 -4 10 -3 8 2 -4 16 14 93 21 89 4 -3
8 6 9 20 1 13 3 35 4 49 1 14 5 25 8 25 4 0 6 10 5 23 -1 12 0 27 4 32 9 17
10 35 0 41 -5 3 -9 11 -9 17 0 7 4 6 11 -3 8 -12 10 -9 6 13 -2 16 0 27 7 27
6 0 4 5 -4 10 -13 9 -13 10 0 10 13 0 13 1 0 10 -13 9 -13 11 0 20 13 9 13 10
0 10 -9 0 -11 3 -5 8 9 6 13 130 6 203 -1 20 -35 31 -50 16 -8 -8 -11 -7 -11
2 0 8 -6 11 -15 7 -8 -3 -15 0 -15 6 0 7 -4 7 -14 -1 -9 -7 -15 -8 -18 -2 -1
6 -20 11 -40 13 -21 1 -38 5 -38 8 0 3 -8 7 -17 8 -21 2 -57 10 -60 12 -2 2
-6 3 -10 4 -5 1 -23 6 -40 10 -18 4 -33 12 -33 17 0 6 -4 8 -8 5 -4 -2 -28 6
-54 19 -25 13 -49 21 -52 18 -3 -4 -6 -1 -6 5 0 7 -9 12 -20 12 -11 0 -20 5
-20 10 0 6 -13 10 -30 10 -16 0 -30 -4 -30 -9z"/>
<path d="M75 855 c-21 -12 -66 -55 -58 -55 3 0 -1 -8 -8 -17 -12 -14 -12 -16
0 -8 10 6 12 4 5 -6 -12 -20 -12 -89 1 -89 7 0 7 -3 0 -8 -13 -9 -13 -121 -1
-141 6 -10 5 -12 -2 -7 -7 4 -12 1 -12 -9 0 -10 5 -14 12 -9 10 6 10 4 0 -7
-6 -7 -12 -18 -12 -24 0 -5 5 -3 10 5 8 12 10 11 10 -7 0 -25 46 -76 61 -68 5
4 9 1 9 -4 0 -6 10 -9 23 -7 12 2 28 -2 36 -8 11 -8 13 -8 8 0 -4 8 2 11 18
10 14 0 25 -5 25 -11 0 -6 3 -6 8 1 9 13 64 13 74 -1 5 -6 8 -6 8 2 0 13 18
12 39 -1 9 -6 12 -5 8 1 -8 12 94 10 114 -3 7 -4 10 -3 6 3 -8 12 94 10 114
-3 7 -4 10 -3 6 3 -6 9 27 10 107 4 4 -1 6 -10 3 -21 -3 -11 0 -20 6 -20 9 0
9 -2 0 -8 -9 -6 -8 -11 5 -19 12 -7 135 -10 390 -9 242 1 372 -2 372 -9 0 -7
3 -7 8 0 4 6 55 10 117 10 62 0 113 -4 117 -10 5 -7 8 -7 8 0 0 6 38 9 95 9
75 -1 95 1 95 12 0 8 5 14 11 14 8 0 8 5 -1 15 -9 11 -9 15 -1 15 7 0 10 4 6
9 -3 5 -1 12 4 15 5 4 12 2 16 -4 4 -6 11 -7 18 -3 17 10 60 11 74 1 7 -5 14
-5 18 2 3 5 11 10 16 10 6 0 7 -5 3 -12 -5 -7 -3 -8 7 -3 20 13 49 13 49 1 0
-8 2 -8 8 0 9 13 64 13 74 -1 5 -6 8 -6 8 2 0 13 18 12 39 -1 9 -6 12 -5 8 0
-6 11 173 11 191 0 6 -3 14 -1 17 5 4 5 13 8 21 5 7 -3 16 -1 19 4 3 5 13 6
23 3 9 -3 14 -3 10 2 -8 8 15 35 30 35 9 0 11 8 15 55 1 14 6 25 10 25 4 0 3
9 -3 19 -13 26 -13 34 3 25 8 -5 8 -2 -2 9 -11 14 -11 17 0 17 11 0 11 2 -1
10 -13 9 -13 10 0 10 13 0 13 1 0 10 -12 8 -12 10 -1 10 11 0 11 3 0 17 -11
13 -11 17 -1 20 6 3 9 10 5 16 -11 18 -12 38 -2 31 5 -3 4 7 -1 21 -13 33 -13
38 0 30 6 -3 7 1 4 9 -3 9 -10 16 -16 16 -5 0 -6 5 -3 10 3 6 1 10 -5 10 -6 0
-9 3 -7 8 6 9 -19 33 -27 25 -3 -4 -6 -1 -6 6 0 8 -7 11 -15 7 -8 -3 -15 -2
-15 2 0 13 -2404 10 -2425 -3z"/>
</g>
</svg>
